<svg width="24" height="18" viewBox="0 0 24 18" fill="currentColor" xmlns="http://www.w3.org/2000/svg">
<rect width="24" height="18" rx="3" fill="inherit"/>
<path d="M8.7168 6.82227C8.36914 6.82227 8.06055 6.89062 7.79102 7.02734C7.52539 7.16016 7.30078 7.35352 7.11719 7.60742C6.9375 7.86133 6.80078 8.16797 6.70703 8.52734C6.61328 8.88672 6.56641 9.29102 6.56641 9.74023C6.56641 10.3457 6.64062 10.8633 6.78906 11.293C6.94141 11.7188 7.17578 12.0449 7.49219 12.2715C7.80859 12.4941 8.2168 12.6055 8.7168 12.6055C9.06445 12.6055 9.41211 12.5664 9.75977 12.4883C10.1113 12.4102 10.4922 12.2988 10.9023 12.1543V13.6777C10.5234 13.834 10.1504 13.9453 9.7832 14.0117C9.41602 14.082 9.00391 14.1172 8.54688 14.1172C7.66406 14.1172 6.9375 13.9355 6.36719 13.5723C5.80078 13.2051 5.38086 12.6934 5.10742 12.0371C4.83398 11.377 4.69727 10.6074 4.69727 9.72852C4.69727 9.08008 4.78516 8.48633 4.96094 7.94727C5.13672 7.4082 5.39453 6.94141 5.73438 6.54688C6.07422 6.15234 6.49414 5.84766 6.99414 5.63281C7.49414 5.41797 8.06836 5.31055 8.7168 5.31055C9.14258 5.31055 9.56836 5.36523 9.99414 5.47461C10.4238 5.58008 10.834 5.72656 11.2246 5.91406L10.6387 7.39062C10.3184 7.23828 9.99609 7.10547 9.67188 6.99219C9.34766 6.87891 9.0293 6.82227 8.7168 6.82227ZM19.4512 5.43359L16.5391 14H14.5586L11.6523 5.43359H13.4863L15.0977 10.5312C15.125 10.6172 15.1699 10.7793 15.2324 11.0176C15.2949 11.252 15.3574 11.502 15.4199 11.7676C15.4863 12.0293 15.5312 12.2461 15.5547 12.418C15.5781 12.2461 15.6191 12.0293 15.6777 11.7676C15.7402 11.5059 15.8008 11.2578 15.8594 11.0234C15.9219 10.7852 15.9668 10.6211 15.9941 10.5312L17.6172 5.43359H19.4512Z" fill="white"/>
</svg>
