<svg width="16" height="16" viewBox="0 0 16 16" fill="none" xmlns="http://www.w3.org/2000/svg">
<path d="M7.99996 1.4408C5.19996 1.4408 2.66663 3.58746 2.66663 6.90746C2.66663 9.02746 4.29996 11.5208 7.55996 14.3941C7.81329 14.6141 8.19329 14.6141 8.44663 14.3941C11.7 11.5208 13.3333 9.02746 13.3333 6.90746C13.3333 3.58746 10.8 1.4408 7.99996 1.4408ZM7.99996 8.10746C7.26663 8.10746 6.66663 7.50746 6.66663 6.77413C6.66663 6.0408 7.26663 5.4408 7.99996 5.4408C8.73329 5.4408 9.33329 6.0408 9.33329 6.77413C9.33329 7.50746 8.73329 8.10746 7.99996 8.10746Z" fill="#888888"/>
</svg>
