<svg width="24" height="18" viewBox="0 0 24 18" fill="currentColor" xmlns="http://www.w3.org/2000/svg">
<rect width="24" height="18" rx="3" fill="inherit"/>
<path d="M17.3334 3.66663H6.66671C5.93337 3.66663 5.34004 4.26663 5.34004 4.99996L5.33337 13C5.33337 13.7333 5.93337 14.3333 6.66671 14.3333H17.3334C18.0667 14.3333 18.6667 13.7333 18.6667 13V4.99996C18.6667 4.26663 18.0667 3.66663 17.3334 3.66663ZM16.6667 13H7.33337C6.96671 13 6.66671 12.7 6.66671 12.3333V6.33329L11.2934 9.22663C11.7267 9.49996 12.2734 9.49996 12.7067 9.22663L17.3334 6.33329V12.3333C17.3334 12.7 17.0334 13 16.6667 13ZM12 8.33329L6.66671 4.99996H17.3334L12 8.33329Z" fill="white"/>
</svg>
